<svg width="484" height="361" viewBox="0 0 484 361" fill="none" xmlns="http://www.w3.org/2000/svg">
<rect width="484" height="361" rx="111" fill="#EAF2FF"/>
<path fill-rule="evenodd" clip-rule="evenodd" d="M265.386 221.26H234.502L230.642 257.346H269.246L265.386 221.26Z" fill="#DBBD76"/>
<path d="M293.374 207.966C300.304 207.966 305.921 198.612 305.921 187.074C305.921 175.536 300.304 166.183 293.374 166.183C286.445 166.183 280.828 175.536 280.828 187.074C280.828 198.612 286.445 207.966 293.374 207.966Z" fill="#808080"/>
<path fill-rule="evenodd" clip-rule="evenodd" d="M341.065 291.478C335.764 271.379 317.329 257.346 296.225 257.346C268.783 257.346 231.103 257.346 203.663 257.346C182.56 257.346 164.122 271.379 158.822 291.478C154.334 308.492 149.248 327.782 146.289 339.005C145.688 341.28 146.192 343.701 147.655 345.561C149.117 347.42 151.371 348.508 153.761 348.508C189.441 348.508 310.447 348.508 346.126 348.508C348.515 348.508 350.772 347.42 352.233 345.561C353.696 343.701 354.2 341.28 353.6 339.005C350.641 327.782 345.552 308.492 341.065 291.478Z" fill="#D5D5D5"/>
<path fill-rule="evenodd" clip-rule="evenodd" d="M249.944 140.948C279.295 140.948 288.458 161.07 288.458 185.853C288.458 210.638 271.2 234.559 249.944 234.559C228.686 234.559 211.428 210.638 211.428 185.853C211.428 161.07 220.593 140.948 249.944 140.948Z" fill="#F9D786"/>
<path fill-rule="evenodd" clip-rule="evenodd" d="M255.735 257.346H244.153C244.153 257.346 235.533 312.474 233.166 327.611C232.792 330.002 233.599 332.428 235.338 334.139C237.791 336.551 241.445 340.146 244.483 343.137C245.933 344.562 247.896 345.361 249.944 345.361C251.992 345.361 253.955 344.562 255.403 343.137C258.443 340.146 262.097 336.551 264.55 334.139C266.289 332.428 267.094 330.002 266.722 327.611C264.353 312.474 255.735 257.346 255.735 257.346Z" fill="#F20D0D"/>
<path fill-rule="evenodd" clip-rule="evenodd" d="M288.549 257.346H211.339C211.339 257.346 217.477 266.407 222.015 273.102C223.23 274.896 225.162 276.097 227.331 276.406C229.499 276.716 231.699 276.104 233.383 274.725C240.229 269.111 249.944 261.144 249.944 261.144C249.944 261.144 259.659 269.111 266.505 274.725C268.189 276.104 270.389 276.716 272.557 276.406C274.724 276.097 276.656 274.896 277.873 273.102C282.409 266.407 288.549 257.346 288.549 257.346Z" fill="#F3F3F3"/>
<path fill-rule="evenodd" clip-rule="evenodd" d="M211.519 187.929C208.201 180.767 205.549 167.292 205.549 158.586C205.549 153.735 201.688 134.225 216.165 124.4C221.952 120.474 235.857 112.767 249.944 113.005C267.316 113.297 280.834 119.019 288.232 126.299C297.235 135.157 294.34 145.665 294.34 156.687C294.34 165.393 291.685 180.767 288.369 187.929L288.458 185.853C288.458 180.976 275.201 168.504 276.967 164.284C283.723 148.14 267.017 145.291 249.944 145.291C234.415 145.291 218.095 144.342 221.956 166.183C223.019 172.207 211.428 179.173 211.428 185.853L211.519 187.929Z" fill="#404040"/>
<path fill-rule="evenodd" clip-rule="evenodd" d="M211.428 191.727H222.842C224.973 191.727 226.702 190.024 226.702 187.929C226.702 185.832 224.973 184.13 222.842 184.13H211.428C209.297 184.13 207.568 185.832 207.568 187.929C207.568 190.024 209.297 191.727 211.428 191.727ZM244.113 191.727H255.526C257.657 191.727 259.387 190.024 259.387 187.929C259.387 185.832 257.657 184.13 255.526 184.13H244.113C241.982 184.13 240.253 185.832 240.253 187.929C240.253 190.024 241.982 191.727 244.113 191.727ZM276.796 191.727H288.211C290.34 191.727 292.072 190.024 292.072 187.929C292.072 185.832 290.34 184.13 288.211 184.13H276.796C274.667 184.13 272.935 185.832 272.935 187.929C272.935 190.024 274.667 191.727 276.796 191.727Z" fill="#0D79F2"/>
<path fill-rule="evenodd" clip-rule="evenodd" d="M234.502 173.78C227.044 173.78 220.991 179.738 220.991 187.074C220.991 194.413 227.044 200.369 234.502 200.369C241.959 200.369 248.014 194.413 248.014 187.074C248.014 179.738 241.959 173.78 234.502 173.78ZM234.502 181.377C237.699 181.377 240.293 183.931 240.293 187.074C240.293 190.219 237.699 192.772 234.502 192.772C231.306 192.772 228.712 190.219 228.712 187.074C228.712 183.931 231.306 181.377 234.502 181.377ZM265.386 173.78C257.928 173.78 251.874 179.738 251.874 187.074C251.874 194.413 257.928 200.369 265.386 200.369C272.843 200.369 278.898 194.413 278.898 187.074C278.898 179.738 272.843 173.78 265.386 173.78ZM265.386 181.377C268.583 181.377 271.177 183.931 271.177 187.074C271.177 190.219 268.583 192.772 265.386 192.772C262.19 192.772 259.595 190.219 259.595 187.074C259.595 183.931 262.19 181.377 265.386 181.377Z" fill="#0D79F2"/>
<path fill-rule="evenodd" clip-rule="evenodd" d="M297.231 206.853L297.235 207.966C297.235 217.407 289.456 225.059 279.863 225.059C269.752 225.059 257.665 225.059 257.665 225.059C255.534 225.059 253.804 223.357 253.804 221.26C253.804 219.164 255.534 217.462 257.665 217.462C257.665 217.462 269.752 217.462 279.863 217.462C285.192 217.462 289.514 213.211 289.514 207.966L289.68 206.938C290.817 207.635 292.071 207.966 293.374 207.966C294.735 207.966 296.048 207.605 297.231 206.853Z" fill="#A0A0A0"/>
<path fill-rule="evenodd" clip-rule="evenodd" d="M318.139 300.133C318.433 297.962 317.761 295.773 316.294 294.124C314.829 292.477 312.711 291.532 310.486 291.532C285.493 291.532 214.395 291.532 189.402 291.532C187.177 291.532 185.059 292.477 183.592 294.124C182.127 295.773 181.456 297.962 181.749 300.133C183.301 311.584 186.011 331.584 187.41 341.916C187.922 345.69 191.194 348.508 195.064 348.508H304.822C308.693 348.508 311.964 345.69 312.476 341.916C313.877 331.584 316.587 311.584 318.139 300.133Z" fill="#404040"/>
<path d="M249.944 327.617C254.208 327.617 257.665 324.216 257.665 320.02C257.665 315.824 254.208 312.423 249.944 312.423C245.68 312.423 242.223 315.824 242.223 320.02C242.223 324.216 245.68 327.617 249.944 327.617Z" fill="white"/>
</svg>
