<svg width="36" height="36" viewBox="0 0 36 36" fill="none" xmlns="http://www.w3.org/2000/svg">
<circle cx="18" cy="18" r="18" fill="#1B72FF"/>
<path d="M24.75 23.25V22.0155C24.75 21.4022 24.3766 20.8506 23.8071 20.6228L22.2815 20.0126C21.5571 19.7229 20.7316 20.0367 20.3828 20.7345L20.25 21C20.25 21 18.375 20.625 16.875 19.125C15.375 17.625 15 15.75 15 15.75L15.2655 15.6172C15.9633 15.2684 16.2771 14.4429 15.9874 13.7185L15.3772 12.1929C15.1494 11.6234 14.5978 11.25 13.9845 11.25H12.75C11.9216 11.25 11.25 11.9216 11.25 12.75C11.25 19.3774 16.6226 24.75 23.25 24.75C24.0784 24.75 24.75 24.0784 24.75 23.25Z" fill="white"/>
</svg>
