<svg width="105" height="189" viewBox="0 0 105 189" fill="none" xmlns="http://www.w3.org/2000/svg">
<g clip-path="url(#clip0_197_2167)">
<path d="M7.89449 51.6446C7.75644 51.6446 7.64404 51.5322 7.64404 51.3941V45.1392C7.64404 45.0011 7.75644 44.8887 7.89449 44.8887C8.03253 44.8887 8.14493 45.0011 8.14493 45.1392V51.3941C8.14493 51.5322 8.03253 51.6446 7.89449 51.6446Z" fill="#364F66"/>
<path d="M5.65157 52.4656C5.51352 52.4656 5.40112 52.3532 5.40112 52.2151V38.8842C5.40112 38.7462 5.51352 38.6338 5.65157 38.6338C5.78961 38.6338 5.90201 38.7462 5.90201 38.8842V52.2151C5.90201 52.3532 5.78961 52.4656 5.65157 52.4656Z" fill="#364F66"/>
<path d="M3.29121 53.5211C3.15317 53.5211 3.04077 53.4087 3.04077 53.2707V42.4809C3.04077 42.3428 3.15317 42.2304 3.29121 42.2304C3.42926 42.2304 3.54166 42.3428 3.54166 42.4809V53.2707C3.54166 53.4087 3.42926 53.5211 3.29121 53.5211Z" fill="#364F66"/>
<path d="M0.76973 54.4068C0.631681 54.4068 0.519287 54.2944 0.519287 54.1564V48.2667C0.519287 48.1286 0.631681 48.0162 0.76973 48.0162C0.907779 48.0162 1.02017 48.1286 1.02017 48.2667V54.1564C1.02017 54.2944 0.907779 54.4068 0.76973 54.4068Z" fill="#364F66"/>
<path d="M80.7421 141.098C80.6041 141.098 80.4917 140.986 80.4917 140.848V134.593C80.4917 134.455 80.6041 134.342 80.7421 134.342C80.8802 134.342 80.9926 134.455 80.9926 134.593V140.848C80.9926 140.986 80.8802 141.098 80.7421 141.098Z" fill="#364F66"/>
<path d="M78.4995 141.919C78.3614 141.919 78.249 141.807 78.249 141.669V128.338C78.249 128.2 78.3614 128.088 78.4995 128.088C78.6375 128.088 78.7499 128.2 78.7499 128.338V141.669C78.7499 141.807 78.6375 141.919 78.4995 141.919Z" fill="#364F66"/>
<path d="M76.1391 142.975C76.0011 142.975 75.8887 142.862 75.8887 142.724V131.935C75.8887 131.796 76.0011 131.684 76.1391 131.684C76.2772 131.684 76.3896 131.796 76.3896 131.935V142.724C76.3896 142.862 76.2772 142.975 76.1391 142.975Z" fill="#364F66"/>
<path d="M73.6176 143.86C73.4796 143.86 73.3672 143.748 73.3672 143.61V137.72C73.3672 137.582 73.4796 137.47 73.6176 137.47C73.7557 137.47 73.8681 137.582 73.8681 137.72V143.61C73.8681 143.748 73.7557 143.86 73.6176 143.86Z" fill="#364F66"/>
<path d="M92.979 107.003C91.7854 107.003 90.8142 106.032 90.8142 104.838C90.8142 103.644 91.7854 102.673 92.979 102.673C94.1738 102.673 95.145 103.644 95.145 104.838C95.145 106.032 94.1738 107.003 92.979 107.003ZM92.979 103.173C92.0615 103.173 91.3151 103.92 91.3151 104.838C91.3151 105.756 92.0615 106.503 92.979 106.503C93.8977 106.503 94.6441 105.756 94.6441 104.838C94.6441 103.92 93.8977 103.173 92.979 103.173Z" fill="#364F66"/>
<path d="M2.78223 103.381C1.58866 103.381 0.617432 102.41 0.617432 101.216C0.617432 100.022 1.58866 99.0505 2.78223 99.0505C3.97703 99.0505 4.94826 100.022 4.94826 101.216C4.94826 102.41 3.97703 103.381 2.78223 103.381ZM2.78223 99.5514C1.86476 99.5514 1.11832 100.298 1.11832 101.216C1.11832 102.134 1.86476 102.88 2.78223 102.88C3.70093 102.88 4.44737 102.134 4.44737 101.216C4.44737 100.298 3.70093 99.5514 2.78223 99.5514Z" fill="#364F66"/>
<path d="M45.2364 41.0897C45.1496 41.0897 45.0666 41.0445 45.0201 40.9645C44.9505 40.8448 44.992 40.6914 45.1118 40.6224L50.5592 37.4772C50.6789 37.4088 50.8316 37.4491 50.9 37.5689C50.9697 37.6886 50.9281 37.8419 50.8084 37.9109L45.361 41.0561C45.3219 41.0787 45.2791 41.0897 45.2364 41.0897Z" fill="#364F66"/>
<path d="M6.98756 76.3395C6.84952 76.3395 6.73834 76.2277 6.73712 76.0897L6.72002 70.0552C6.70658 66.0628 9.52375 61.1761 12.9994 59.1634L42.2365 42.283C42.3562 42.2152 42.5089 42.2549 42.5773 42.3746C42.6469 42.4943 42.6054 42.6477 42.4857 42.7167L13.2499 59.5965C9.91224 61.5292 7.20746 66.2204 7.2209 70.054L7.23801 76.0885C7.23801 76.2265 7.12561 76.3389 6.98756 76.3395Z" fill="#364F66"/>
<path d="M7.07671 132.218C6.93988 132.218 6.82749 132.107 6.82627 131.97L6.71876 117.895C6.71754 117.757 6.82871 117.644 6.96676 117.642H6.9692C7.10603 117.642 7.21842 117.754 7.21964 117.891L7.32715 131.966C7.32837 132.104 7.2172 132.217 7.07915 132.218C7.07793 132.218 7.07671 132.218 7.07671 132.218Z" fill="#364F66"/>
<path d="M7.18777 146.897C7.05095 146.897 6.93855 146.785 6.93733 146.648L6.85426 135.774C6.85304 135.636 6.96421 135.523 7.10226 135.522H7.1047C7.24153 135.522 7.35392 135.633 7.35514 135.771L7.43822 146.644C7.43944 146.782 7.32827 146.895 7.19022 146.897C7.18899 146.897 7.18777 146.897 7.18777 146.897Z" fill="#364F66"/>
<path d="M72.0421 117.363C72.0421 121.293 69.2903 126.067 65.873 128.038L20.5626 154.2C18.822 155.211 17.2352 155.288 16.1084 154.584L13.7075 153.189C12.5938 152.549 11.9026 151.166 11.9026 149.221L11.6851 72.629C11.672 68.7124 14.4369 63.9255 17.8411 61.9544L63.1515 35.7924C64.8664 34.8068 66.4276 34.7172 67.5413 35.37L70.0196 36.8039C69.9428 36.7655 69.8659 36.7144 69.7765 36.6887C71.0308 37.2647 71.8114 38.6855 71.8246 40.7718L72.0421 117.363Z" fill="#DBE7FE"/>
<path d="M70.0196 36.8039C68.8935 36.1512 67.3316 36.2408 65.6167 37.2391L20.3069 63.4011C16.9021 65.3595 14.1372 70.1464 14.1504 74.0759L14.3678 150.655C14.3678 152.613 15.0591 153.983 16.1728 154.623L13.7075 153.189C12.5938 152.549 11.9026 151.166 11.9026 149.221L11.6851 72.629C11.672 68.7124 14.4369 63.9255 17.8411 61.9544L63.1515 35.7924C64.8664 34.8068 66.4276 34.7172 67.5413 35.37L70.0196 36.8039Z" fill="#AAC4E8"/>
<path d="M65.6229 37.2352C69.0306 35.2678 71.8097 36.8518 71.8208 40.7769L72.0379 117.364C72.0491 121.289 69.288 126.071 65.8803 128.039L20.5664 154.201C17.1588 156.168 14.3797 154.584 14.3685 150.659L14.1514 74.0724C14.1403 70.1473 16.9014 65.3647 20.309 63.3972L65.6229 37.2352Z" fill="#DBE7FE"/>
<path d="M56.9437 81.2586L46.8201 93.8833L40.9483 101.22H40.9366L24.7746 99.8383L24.7627 80.806L40.7578 60.8447L45.0929 61.2259L56.9317 62.2383L56.9437 81.2586Z" fill="#8FB0D8"/>
<path d="M56.9347 62.2335L56.9468 81.2576L46.825 93.8809L40.9433 101.216L40.9292 82.2004L56.9347 62.2335Z" fill="#8FB0D8"/>
<path d="M24.7588 80.8112L40.9277 82.1999L40.9395 101.219L24.7709 99.8329L24.7588 80.8112Z" fill="#8FB0D8"/>
<path d="M40.7597 60.8503L45.0943 61.221L56.9332 62.2333L40.9277 82.2002L24.7588 80.8092L40.7597 60.8503Z" fill="#8FB0D8"/>
<path d="M21.4441 124.962C21.0201 124.962 20.6095 124.742 20.3823 124.349C20.0434 123.763 20.2441 123.014 20.8301 122.676L61.1069 99.4216C61.6917 99.0814 62.4411 99.2853 62.78 99.8694C63.1189 100.455 62.9182 101.204 62.3322 101.542L22.0553 124.797C21.8626 124.909 21.6514 124.962 21.4441 124.962Z" fill="#8FB0D8"/>
<path d="M21.4443 139.033C21.0204 139.033 20.6098 138.813 20.3825 138.42C20.0437 137.834 20.2443 137.085 20.8304 136.747L61.1072 113.493C61.6919 113.154 62.4414 113.356 62.7803 113.941C63.1191 114.527 62.9184 115.276 62.3324 115.614L22.0556 138.868C21.8629 138.979 21.6516 139.033 21.4443 139.033Z" fill="#8FB0D8"/>
<path d="M22.958 125.529C22.5341 125.529 22.1234 125.309 21.8962 124.916C21.5573 124.33 21.758 123.581 22.344 123.243L62.6209 99.9885C63.2056 99.6483 63.9551 99.8523 64.2939 100.436C64.6328 101.022 64.4321 101.771 63.8461 102.109L23.5693 125.364C23.3766 125.476 23.1653 125.529 22.958 125.529Z" fill="white"/>
<path d="M22.9582 139.6C22.5343 139.6 22.1237 139.38 21.8964 138.987C21.5576 138.401 21.7582 137.652 22.3443 137.314L62.6211 114.06C63.2058 113.721 63.9553 113.923 64.2942 114.508C64.633 115.094 64.4324 115.843 63.8463 116.181L23.5695 139.435C23.3768 139.546 23.1655 139.6 22.9582 139.6Z" fill="white"/>
<path d="M59.1866 82.0408L49.063 94.6655L43.1912 102.002H43.1796L27.0175 100.621L27.0056 81.5882L43.0007 61.627L47.3359 62.0081L59.1747 63.0205L59.1866 82.0408Z" fill="#324566"/>
<path d="M59.1756 63.0154L59.1877 82.0395L49.066 94.6629L43.1843 101.998L43.1702 82.9823L59.1756 63.0154Z" fill="#26404F"/>
<path d="M27.0015 81.5934L43.1704 82.9821L43.1822 102.001L27.0136 100.615L27.0015 81.5934Z" fill="#1C323D"/>
<path d="M43.0024 61.6323L47.337 62.003L59.1758 63.0153L43.1704 82.9821L27.0015 81.5912L43.0024 61.6323Z" fill="#324566"/>
<path d="M104.429 53.7211L98.6556 49.2561L93.8864 49.9571L91.7778 57.5578L98.5801 62.64L105 58.5527L104.429 53.7211Z" fill="#1C323D"/>
<path d="M101.417 53.3826L98.8073 51.3642L96.6514 51.6811L96.906 53.9175L99.4965 55.9211L101.675 55.5668L101.417 53.3826Z" fill="#162830"/>
<path d="M101.682 54.0343L99.072 52.0159L96.916 52.3327L97.1706 54.5692L99.7612 56.5728L101.94 56.2184L101.682 54.0343Z" fill="#FBD46C"/>
<path d="M101.938 56.2179L99.7608 56.5725L97.1689 54.5689L96.9453 52.5961C96.9931 52.6092 97.0398 52.6256 97.0866 52.642C97.3112 52.718 97.5408 52.8026 97.7184 52.9572C97.8446 53.0722 97.9391 53.2225 98.0766 53.3223C98.3474 53.5244 98.7147 53.5074 99.0491 53.4631C99.3825 53.4222 99.736 53.3612 100.042 53.5032C100.354 53.647 100.601 53.9891 100.94 53.9535C101.084 53.9378 101.206 53.8537 101.326 53.7621L101.68 54.0345L101.938 56.2179Z" fill="#F9C539"/>
<path d="M105 58.5524L75.9938 96.0554L71.3379 96.6273C79.3062 78.9478 87.7743 62.8591 100.18 59.3363L105 58.5524Z" fill="#324566"/>
<path d="M93.8876 49.9574L64.8816 87.4604L65.6087 92.1956C79.9392 79.61 93.1998 67.0597 94.4508 54.9046L93.8876 49.9574Z" fill="#324566"/>
<path d="M65.6211 92.2053L94.473 54.9147L100.203 59.3483L71.3515 96.6389L65.6211 92.2053Z" fill="#26404F"/>
<path d="M71.3384 96.6276L65.6079 92.1954C64.8596 92.1084 63.4904 96.6549 61.8906 102.923C66.8115 100.479 72.9584 97.7975 71.3384 96.6276Z" fill="#F9C539"/>
<path d="M65.6077 92.1955L64.8805 87.4602L63.0962 96.687L63.3529 98.7021L65.6077 92.1955Z" fill="#FBD46C"/>
<path d="M65.6079 100.446L63.353 98.702C62.9046 98.7824 62.4013 100.725 61.8906 102.923C63.9821 101.832 66.226 100.694 65.6079 100.446Z" fill="#26404F"/>
<path d="M67.5784 100.153L65.6079 100.446L61.8906 102.923L67.5784 100.153Z" fill="#324566"/>
<path d="M75.9947 96.0559L67.5787 100.154L65.6082 100.446L71.3389 96.6278L75.9947 96.0559Z" fill="#FBD46C"/>
<path d="M63.3532 98.7023L63.0965 96.6871L61.8906 102.923L63.3532 98.7023Z" fill="#324566"/>
</g>
<defs>
<clipPath id="clip0_197_2167">
<rect width="105" height="189" fill="white"/>
</clipPath>
</defs>
</svg>
