<svg width="36" height="36" viewBox="0 0 36 36" fill="none" xmlns="http://www.w3.org/2000/svg">
<circle cx="18" cy="18" r="18" fill="#1B72FF"/>
<path d="M22.5 10.5H13.5C11.8431 10.5 10.5 11.8431 10.5 13.5V22.5C10.5 24.1569 11.8431 25.5 13.5 25.5H16.875V21H14.25V18.75H16.875V18.25C16.875 16.0409 18.6659 14.25 20.875 14.25H21.75V16.5H20.125C19.5727 16.5 19.125 16.9477 19.125 17.5V18.75H21.75V21H19.125V25.5H22.5C24.1569 25.5 25.5 24.1569 25.5 22.5V13.5C25.5 11.8431 24.1569 10.5 22.5 10.5Z" fill="white"/>
</svg>
