<svg width="36" height="36" viewBox="0 0 36 36" fill="none" xmlns="http://www.w3.org/2000/svg">
<circle cx="18" cy="18" r="18" fill="#1B72FF"/>
<path fill-rule="evenodd" clip-rule="evenodd" d="M15.5 10.5C12.7386 10.5 10.5 12.7386 10.5 15.5V20.5C10.5 23.2614 12.7386 25.5 15.5 25.5H20.5C23.2614 25.5 25.5 23.2614 25.5 20.5V15.5C25.5 12.7386 23.2614 10.5 20.5 10.5H15.5ZM22.5 14.25C22.9142 14.25 23.25 13.9142 23.25 13.5C23.25 13.0858 22.9142 12.75 22.5 12.75C22.0858 12.75 21.75 13.0858 21.75 13.5C21.75 13.9142 22.0858 14.25 22.5 14.25ZM21.75 18C21.75 20.0711 20.0711 21.75 18 21.75C15.9289 21.75 14.25 20.0711 14.25 18C14.25 15.9289 15.9289 14.25 18 14.25C20.0711 14.25 21.75 15.9289 21.75 18ZM18 20.25C19.2426 20.25 20.25 19.2426 20.25 18C20.25 16.7574 19.2426 15.75 18 15.75C16.7574 15.75 15.75 16.7574 15.75 18C15.75 19.2426 16.7574 20.25 18 20.25Z" fill="white"/>
</svg>
