<svg width="127" height="189" viewBox="0 0 127 189" fill="none" xmlns="http://www.w3.org/2000/svg">
<path style="mix-blend-mode:multiply" opacity="0.4" d="M126.58 175.891C130.156 163.674 104.821 145.5 69.994 135.298C35.1665 125.097 4.03461 126.731 0.458855 138.948C-3.1169 151.165 22.2176 169.339 57.045 179.541C91.8724 189.742 123.004 188.108 126.58 175.891Z" fill="url(#paint0_radial_197_2307)"/>
<path d="M93.8539 62.896C93.8539 62.8691 93.8507 62.8422 93.8496 62.8153C93.8475 62.7583 93.8442 62.7013 93.8421 62.6443C93.8389 62.5765 93.8367 62.5098 93.8324 62.441C93.8292 62.3894 93.8238 62.3367 93.8195 62.285C93.8152 62.2248 93.8109 62.1645 93.8055 62.1032C93.8023 62.0634 93.8002 62.0236 93.7959 61.9827C93.7873 61.8967 93.7765 61.8096 93.7668 61.7235C93.7615 61.673 93.7561 61.6224 93.7496 61.5718C93.7475 61.5546 93.7464 61.5385 93.7442 61.5213C93.7249 61.3642 93.7023 61.2072 93.6765 61.049C93.6765 61.0458 93.6754 61.0426 93.6744 61.0394C93.6711 61.0168 93.6668 60.9942 93.6625 60.9705C93.641 60.8382 93.6184 60.7059 93.5937 60.5736C93.5894 60.5499 93.584 60.5262 93.5797 60.5026C93.5679 60.4402 93.5539 60.3767 93.541 60.3133C93.5249 60.2358 93.5109 60.1594 93.4937 60.082C93.484 60.04 93.4733 59.997 93.4636 59.954C93.4485 59.8851 93.4313 59.8163 93.4152 59.7475C93.4023 59.6947 93.3916 59.642 93.3787 59.5893C93.3625 59.5258 93.3453 59.4635 93.3292 59.4C93.3109 59.3311 93.2937 59.2612 93.2743 59.1924C93.2647 59.158 93.2571 59.1246 93.2475 59.0902C93.2227 58.9998 93.1948 58.9095 93.169 58.8191C93.1518 58.76 93.1356 58.7019 93.1174 58.6427C93.112 58.6255 93.1077 58.6094 93.1023 58.5921C93.0528 58.4297 93.0002 58.2684 92.9464 58.1059C92.9464 58.1038 92.9453 58.1027 92.9442 58.1006C92.9399 58.0866 92.9346 58.0737 92.9303 58.0597C92.8819 57.9155 92.8313 57.7714 92.7797 57.6272C92.7711 57.6047 92.7625 57.5821 92.755 57.5606C92.7356 57.5068 92.7141 57.4519 92.6937 57.3981C92.6647 57.3207 92.6367 57.2443 92.6066 57.1668C92.5873 57.1184 92.5668 57.07 92.5475 57.0205C92.5238 56.9603 92.4991 56.9001 92.4754 56.8398C92.4572 56.7957 92.441 56.7527 92.4227 56.7086C92.3873 56.6226 92.3496 56.5365 92.312 56.4515C92.2916 56.4042 92.2722 56.3568 92.2507 56.3095C92.2432 56.2923 92.2367 56.2751 92.2292 56.259C92.1615 56.1062 92.0926 55.9545 92.0217 55.8029C92.0195 55.7975 92.0163 55.7921 92.0141 55.7867C91.9948 55.7459 91.9754 55.7061 91.9561 55.6663C91.8991 55.5468 91.8421 55.4275 91.783 55.3091C91.7744 55.2908 91.7647 55.2736 91.755 55.2553C91.7077 55.1618 91.6593 55.0682 91.6098 54.9746C91.5701 54.8982 91.5324 54.8208 91.4916 54.7455C91.484 54.7315 91.4765 54.7186 91.469 54.7046C91.3378 54.4604 91.2023 54.2194 91.0625 53.9796C91.0507 53.9591 91.04 53.9387 91.0281 53.9182C90.9926 53.858 90.955 53.7988 90.9185 53.7386C90.8593 53.6407 90.8013 53.5428 90.741 53.446C90.6873 53.36 90.6324 53.2739 90.5776 53.1889C90.5163 53.0932 90.455 52.9975 90.3927 52.9028C90.3722 52.8716 90.3529 52.8393 90.3314 52.8081C90.312 52.778 90.2894 52.75 90.2701 52.721C90.0959 52.4639 89.9195 52.209 89.7357 51.9605C89.7346 51.9594 89.7335 51.9572 89.7324 51.9562C89.6023 51.7798 89.4701 51.6066 89.3357 51.4355C89.3292 51.428 89.3238 51.4194 89.3185 51.4119C89.2195 51.286 89.1185 51.1623 89.0163 51.0386C88.997 51.0149 88.9787 50.9913 88.9593 50.9687C88.9582 50.9676 88.9572 50.9655 88.955 50.9644C88.8357 50.8202 88.7142 50.6793 88.5916 50.5395C88.5851 50.533 88.5787 50.5255 88.5733 50.519C88.5367 50.4771 88.498 50.4362 88.4615 50.3943C88.383 50.3071 88.3056 50.2189 88.2271 50.1339C88.212 50.1178 88.197 50.1027 88.1819 50.0866C88.1281 50.0296 88.0744 49.9737 88.0206 49.9177C87.9615 49.8553 87.9024 49.7919 87.8421 49.7306C87.8196 49.708 87.797 49.6865 87.7755 49.6639C87.7163 49.6047 87.6572 49.5466 87.598 49.4885C87.5475 49.439 87.497 49.3874 87.4464 49.3379C87.4174 49.31 87.3884 49.2841 87.3593 49.2562C87.2959 49.1959 87.2314 49.1368 87.1669 49.0765C87.1228 49.0357 87.0787 48.9926 87.0335 48.9528C86.9981 48.9216 86.9626 48.8915 86.9271 48.8603C86.8626 48.8033 86.798 48.7474 86.7325 48.6914C86.6927 48.6581 86.654 48.6226 86.6153 48.5892C86.5722 48.5537 86.5292 48.5193 86.4862 48.4838C86.4228 48.4311 86.3593 48.3795 86.2959 48.3278C86.2626 48.301 86.2303 48.273 86.197 48.2472C86.1432 48.2052 86.0884 48.1643 86.0346 48.1235C85.9755 48.0783 85.9163 48.032 85.8572 47.9879C85.8335 47.9696 85.8088 47.9503 85.7852 47.9331C85.7249 47.889 85.6636 47.8459 85.6024 47.8029L85.6088 45.502L81.8486 43.3302V42.8138L80.7422 42.1738L80.8174 15.6708L53.6854 0L44.2069 5.51079L44.137 30.339L42.6897 31.1802V31.3394L39.2209 33.3563L39.2134 36.8889L35.207 39.2188C35.207 39.2188 35.2177 39.2135 35.2231 39.2102C33.5263 40.188 32.4736 42.2771 32.465 45.2524L32.2511 120.743C32.2199 131.845 40.0231 145.368 49.6821 150.946L60.9864 157.476C65.9251 160.328 70.3938 160.565 73.6003 158.645C73.5691 158.664 73.5379 158.685 73.5057 158.703L88.5131 149.978C88.6916 149.875 88.8647 149.762 89.0346 149.646C89.0862 149.61 89.1357 149.574 89.1862 149.537C89.3088 149.449 89.4281 149.358 89.5464 149.264C89.597 149.223 89.6486 149.182 89.698 149.14C89.8357 149.024 89.9711 148.903 90.1023 148.779C90.1238 148.758 90.1453 148.74 90.1669 148.719C90.3174 148.573 90.4636 148.419 90.6056 148.26C90.6453 148.215 90.684 148.169 90.7228 148.122C90.826 148.002 90.9271 147.878 91.026 147.751C91.069 147.696 91.1109 147.641 91.1529 147.585C91.2572 147.445 91.3572 147.301 91.455 147.152C91.4808 147.112 91.5088 147.075 91.5346 147.035C91.5421 147.023 91.5507 147.012 91.5582 146.999C91.7991 146.622 92.0206 146.221 92.2217 145.796C92.2281 145.782 92.2346 145.767 92.241 145.752C92.2572 145.716 92.2733 145.68 92.2894 145.644C92.3722 145.462 92.4518 145.276 92.5281 145.087C92.5507 145.031 92.5733 144.976 92.5948 144.919C92.6109 144.877 92.6281 144.837 92.6442 144.795C92.7098 144.619 92.7711 144.439 92.8303 144.256C92.8432 144.218 92.8539 144.179 92.8668 144.14C92.8948 144.05 92.9249 143.961 92.9518 143.869C92.9722 143.798 92.9894 143.722 93.0088 143.65C93.0528 143.492 93.0948 143.33 93.1346 143.168C93.1507 143.101 93.1701 143.039 93.1862 142.971C93.2023 142.898 93.2152 142.821 93.2313 142.747C93.2615 142.608 93.2894 142.469 93.3163 142.327C93.3303 142.253 93.3464 142.184 93.3593 142.11C93.3744 142.024 93.3851 141.935 93.398 141.848C93.4184 141.721 93.4378 141.594 93.455 141.464C93.4636 141.398 93.4754 141.335 93.484 141.268C93.498 141.157 93.5066 141.043 93.5184 140.93C93.5313 140.81 93.5453 140.689 93.5561 140.567C93.5604 140.517 93.5668 140.47 93.5711 140.42C93.584 140.257 93.5926 140.089 93.6023 139.922C93.6077 139.833 93.6152 139.746 93.6184 139.656C93.6184 139.634 93.6217 139.613 93.6227 139.59C93.6346 139.31 93.641 139.027 93.6432 138.739C93.6432 138.722 93.6432 138.706 93.6432 138.689L93.8571 63.3198C93.8571 63.1789 93.8561 63.038 93.8518 62.8949L93.8539 62.896Z" fill="#41BEE8"/>
<path d="M93.854 62.896C93.854 62.8691 93.8508 62.8422 93.8497 62.8153C93.8476 62.7583 93.8444 62.7013 93.8422 62.6443C93.839 62.5765 93.8368 62.5098 93.8325 62.441C93.8293 62.3894 93.8239 62.3366 93.8196 62.285C93.8153 62.2248 93.811 62.1645 93.8056 62.1032C93.8024 62.0634 93.8003 62.0236 93.796 61.9827C93.7874 61.8967 93.7766 61.8096 93.7669 61.7235C93.7616 61.6729 93.7562 61.6224 93.7497 61.5718C93.7476 61.5546 93.7465 61.5385 93.7444 61.5213C93.725 61.3642 93.7024 61.2072 93.6766 61.049C93.6766 61.0458 93.6755 61.0426 93.6745 61.0393C93.6712 61.0168 93.6659 60.9942 93.6626 60.9705C93.6411 60.8382 93.6186 60.7059 93.5938 60.5736C93.5895 60.5499 93.5841 60.5262 93.5798 60.5026C93.568 60.4402 93.554 60.3767 93.5411 60.3133C93.525 60.2358 93.511 60.1594 93.4938 60.082C93.4841 60.04 93.4734 59.997 93.4637 59.954C93.4487 59.8851 93.4315 59.8163 93.4153 59.7474C93.4024 59.6947 93.3917 59.642 93.3788 59.5893C93.3626 59.5258 93.3454 59.4635 93.3293 59.4C93.311 59.3311 93.2938 59.2612 93.2745 59.1924C93.2648 59.158 93.2573 59.1246 93.2476 59.0902C93.2228 58.9998 93.1949 58.9095 93.1691 58.8191C93.1519 58.76 93.1358 58.7019 93.1175 58.6427C93.1121 58.6255 93.1078 58.6093 93.1024 58.5921C93.053 58.4297 93.0003 58.2673 92.9465 58.1059C92.9465 58.1038 92.9454 58.1027 92.9444 58.1005C92.9401 58.0866 92.9347 58.0737 92.9304 58.0597C92.882 57.9155 92.8315 57.7714 92.7798 57.6272C92.7712 57.6047 92.7626 57.5821 92.7551 57.5605C92.7358 57.5068 92.7143 57.4519 92.6938 57.3981C92.6648 57.3207 92.6368 57.2443 92.6067 57.1668C92.5874 57.1184 92.5669 57.07 92.5476 57.0205C92.5239 56.9603 92.4992 56.9001 92.4755 56.8398C92.4573 56.7957 92.4411 56.7527 92.4229 56.7086C92.3874 56.6225 92.3497 56.5365 92.3121 56.4515C92.2917 56.4042 92.2723 56.3568 92.2519 56.3095C92.2444 56.2923 92.2379 56.2751 92.2304 56.2589C92.1626 56.1062 92.0938 55.9545 92.0229 55.8029C92.0207 55.7975 92.0175 55.7921 92.0153 55.7867C91.996 55.7458 91.9766 55.706 91.9573 55.6662C91.9003 55.5468 91.8433 55.4274 91.7841 55.3091C91.7755 55.2908 91.7659 55.2736 91.7562 55.2553C91.7089 55.1617 91.6605 55.0682 91.611 54.9746C91.5712 54.8982 91.5336 54.8207 91.4928 54.7454C91.4852 54.7315 91.4777 54.7186 91.4702 54.7046C91.339 54.4604 91.2035 54.2194 91.0637 53.9795C91.0519 53.9591 91.0411 53.9387 91.0293 53.9182C90.9938 53.858 90.9562 53.7988 90.9196 53.7386C90.8605 53.6407 90.8024 53.5428 90.7422 53.446C90.6885 53.3599 90.6336 53.2739 90.5788 53.1889C90.5175 53.0932 90.4562 52.9974 90.3938 52.9028C90.3734 52.8716 90.354 52.8393 90.3325 52.8081C90.3132 52.778 90.2917 52.75 90.2713 52.721C90.0971 52.4639 89.9207 52.209 89.7369 51.9605C89.7358 51.9594 89.7347 51.9572 89.7336 51.9562C89.6035 51.7797 89.4713 51.6066 89.3369 51.4355C89.3304 51.428 89.325 51.4194 89.3197 51.4119C89.2207 51.286 89.1197 51.1623 89.0175 51.0386C88.9981 51.0149 88.9799 50.9913 88.9605 50.9687C88.9594 50.9676 88.9584 50.9654 88.9562 50.9644C88.8369 50.8202 88.7154 50.6793 88.5928 50.5395C88.5863 50.533 88.5799 50.5255 88.5745 50.519C88.5379 50.4771 88.4992 50.4362 88.4627 50.3943C88.3842 50.3071 88.3068 50.2189 88.2283 50.1339C88.2132 50.1178 88.1982 50.1027 88.1831 50.0866C88.1293 50.0296 88.0756 49.9737 88.0218 49.9177C87.9627 49.8553 87.9035 49.7919 87.8433 49.7305C87.8207 49.708 87.7981 49.6864 87.7766 49.6639C87.7175 49.6047 87.6584 49.5466 87.5992 49.4885C87.5487 49.439 87.4982 49.3874 87.4476 49.3379C87.4186 49.3099 87.3895 49.2841 87.3605 49.2562C87.2971 49.1959 87.2326 49.1368 87.1681 49.0765C87.124 49.0356 87.0799 48.9926 87.0347 48.9528C86.9992 48.9216 86.9638 48.8915 86.9283 48.8603C86.8638 48.8033 86.7992 48.7463 86.7336 48.6914C86.6939 48.6581 86.6552 48.6226 86.6164 48.5892C86.5734 48.5537 86.5304 48.5193 86.4874 48.4838C86.424 48.4311 86.3605 48.3795 86.2971 48.3278C86.2637 48.3009 86.2315 48.273 86.1982 48.2472C86.1444 48.2041 86.0896 48.1643 86.0358 48.1235C85.9767 48.0783 85.9175 48.032 85.8584 47.9879C85.8347 47.9696 85.81 47.9503 85.7863 47.9331C85.7132 47.8793 85.6401 47.8287 85.5659 47.776C85.5164 47.7405 85.4659 47.7039 85.4165 47.6695C85.4035 47.6609 85.3906 47.6512 85.3777 47.6415C85.2455 47.5512 85.1122 47.463 84.9788 47.378C84.9777 47.378 84.9767 47.3769 84.9756 47.3758C84.9659 47.3694 84.9552 47.3629 84.9444 47.3565C84.824 47.2801 84.7025 47.2059 84.581 47.1338C84.5498 47.1155 84.5197 47.0972 84.4885 47.08L56.9037 31.1479C56.8037 31.0898 56.7037 31.0339 56.6048 30.9801C56.5672 30.9596 56.5295 30.9413 56.4919 30.922C56.4403 30.8951 56.3897 30.8682 56.3392 30.8424C56.2994 30.8219 56.2596 30.8004 56.2198 30.7811C56.1564 30.7499 56.094 30.7219 56.0306 30.6918C55.9854 30.6703 55.9403 30.6488 55.8951 30.6272C55.8768 30.6186 55.8575 30.609 55.8392 30.6014C55.7134 30.5455 55.5887 30.4917 55.465 30.4422C55.465 30.4422 55.4629 30.4422 55.4618 30.4411C55.3349 30.3906 55.2091 30.3433 55.0833 30.2992C55.0672 30.2938 55.051 30.2884 55.0349 30.283C54.9898 30.2669 54.9446 30.2529 54.8994 30.2389C54.8349 30.2185 54.7715 30.1948 54.707 30.1765C54.6747 30.1668 54.6446 30.1593 54.6123 30.1507C54.5564 30.1346 54.5016 30.1195 54.4467 30.1045C54.4037 30.0926 54.3607 30.0797 54.3188 30.069C54.2747 30.0582 54.2306 30.0496 54.1865 30.0399C54.1317 30.027 54.0758 30.0141 54.0209 30.0033C53.9919 29.9969 53.9629 29.9894 53.9338 29.984C53.8822 29.9743 53.8317 29.9678 53.7801 29.9582C53.7166 29.9474 53.6532 29.9356 53.5898 29.927C53.5672 29.9237 53.5446 29.9184 53.522 29.9162C53.4693 29.9087 53.4177 29.9065 53.3661 29.9001C53.2984 29.8925 53.2306 29.885 53.164 29.8796C53.1446 29.8786 53.1242 29.8753 53.1037 29.8732C53.0575 29.8699 53.0134 29.871 52.9683 29.8689C52.8887 29.8656 52.808 29.8613 52.7296 29.8613C52.707 29.8613 52.6844 29.8592 52.6629 29.8592C52.6285 29.8592 52.5951 29.8635 52.5607 29.8635C52.4607 29.8656 52.3629 29.8699 52.265 29.8775C52.236 29.8796 52.2048 29.8786 52.1758 29.8818C52.1349 29.885 52.0951 29.8915 52.0543 29.8958C52.0242 29.899 51.993 29.9022 51.9629 29.9065C51.8521 29.9216 51.7425 29.9388 51.6339 29.9603C51.6306 29.9603 51.6274 29.9625 51.6242 29.9625C51.5951 29.9689 51.5661 29.9764 51.5371 29.9829C51.4478 30.0033 51.3586 30.0238 51.2704 30.0485C51.2274 30.0603 51.1866 30.0754 51.1446 30.0883C51.0887 30.1055 51.0317 30.1217 50.9769 30.141C50.9629 30.1464 50.95 30.1529 50.936 30.1582C50.8521 30.1894 50.7704 30.2239 50.6887 30.2594C50.6489 30.2766 50.607 30.2927 50.5683 30.311C50.4489 30.3669 50.3306 30.4272 50.2167 30.4939L35.2092 39.2188C35.3232 39.1521 35.4404 39.0919 35.5608 39.036C35.6006 39.0177 35.6415 39.0015 35.6813 38.9843C35.763 38.9488 35.8458 38.9144 35.9297 38.8832C35.9985 38.8585 36.0684 38.8359 36.1383 38.8144C36.1802 38.8015 36.2221 38.7864 36.2641 38.7746C36.3512 38.7498 36.4404 38.7294 36.5307 38.709C36.5598 38.7025 36.5877 38.6939 36.6178 38.6885C36.7286 38.6659 36.8426 38.6476 36.9565 38.6326C36.9866 38.6283 37.0178 38.6251 37.0479 38.6218C37.1178 38.6143 37.1888 38.6089 37.2587 38.6035C37.3565 38.596 37.4544 38.5917 37.5544 38.5896C37.6103 38.5885 37.6673 38.5863 37.7243 38.5874C37.8028 38.5874 37.8834 38.5917 37.963 38.5949C38.0275 38.5982 38.0931 38.6003 38.1587 38.6057C38.2253 38.6111 38.2931 38.6186 38.3608 38.6261C38.435 38.6347 38.5092 38.6423 38.5845 38.653C38.6479 38.6616 38.7114 38.6735 38.7748 38.6842C38.8544 38.6982 38.935 38.7122 39.0157 38.7294C39.0705 38.7412 39.1264 38.7531 39.1812 38.766C39.2673 38.7864 39.3544 38.8079 39.4415 38.8305C39.4963 38.8456 39.5522 38.8606 39.607 38.8768C39.7017 38.9047 39.7974 38.9338 39.8941 38.966C39.9393 38.9811 39.9845 38.9951 40.0296 39.0101C40.1705 39.0586 40.3124 39.1113 40.4554 39.1683C40.4554 39.1683 40.4565 39.1683 40.4576 39.1683C40.4576 39.1683 40.4597 39.1683 40.4597 39.1693C40.6017 39.2264 40.7447 39.2888 40.8888 39.3544C40.9339 39.3748 40.9791 39.3974 41.0253 39.4189C41.1275 39.4673 41.2307 39.5168 41.3328 39.5695C41.3834 39.5953 41.435 39.6222 41.4855 39.6491C41.6221 39.7212 41.7597 39.7954 41.8974 39.875L69.4821 55.8072C69.6348 55.8954 69.7864 55.9879 69.9381 56.0836C69.9488 56.0901 69.9585 56.0965 69.9692 56.103C70.1176 56.1976 70.2649 56.2955 70.4112 56.3966C70.4617 56.4311 70.5112 56.4676 70.5606 56.5031C70.6585 56.572 70.7563 56.6419 70.8531 56.7151C70.9133 56.7592 70.9724 56.8054 71.0316 56.8506C71.1187 56.9173 71.2058 56.9861 71.2929 57.055C71.3563 57.1066 71.4198 57.1582 71.4832 57.2109C71.566 57.2798 71.6477 57.3486 71.7294 57.4186C71.7939 57.4745 71.8595 57.5315 71.9241 57.5885C72.0047 57.6595 72.0843 57.7316 72.1628 57.8047C72.2273 57.8639 72.2918 57.9231 72.3552 57.9833C72.4359 58.0597 72.5155 58.1371 72.595 58.2156C72.6542 58.2737 72.7133 58.3318 72.7724 58.391C72.8552 58.4738 72.937 58.5588 73.0176 58.6449C73.0714 58.7008 73.1251 58.7567 73.1789 58.8137C73.2724 58.9148 73.366 59.017 73.4574 59.1203C73.495 59.1623 73.5337 59.2031 73.5703 59.2462C73.7004 59.3935 73.8284 59.5441 73.9552 59.6958C73.9757 59.7205 73.9961 59.7464 74.0165 59.7711C74.123 59.9002 74.2283 60.0303 74.3316 60.1627C74.466 60.3337 74.5982 60.508 74.7283 60.6844C74.7294 60.6854 74.7305 60.6876 74.7316 60.6887C74.9144 60.9372 75.0918 61.1921 75.266 61.4492C75.3068 61.5094 75.3477 61.5697 75.3886 61.631C75.4509 61.7256 75.5122 61.8214 75.5735 61.9171C75.6283 62.0032 75.6832 62.0882 75.7369 62.1753C75.7971 62.2721 75.8563 62.37 75.9144 62.4679C75.9627 62.5486 76.0111 62.6292 76.0584 62.7099C76.1982 62.9487 76.3337 63.1907 76.4649 63.4349C76.5133 63.5242 76.5595 63.6146 76.6058 63.7049C76.6541 63.7985 76.7036 63.891 76.7509 63.9857C76.8197 64.1223 76.8864 64.26 76.952 64.3977C76.9713 64.4375 76.9907 64.4762 77.009 64.516C77.0907 64.6903 77.1692 64.8645 77.2466 65.0399C77.267 65.0872 77.2864 65.1335 77.3068 65.1808C77.3627 65.3109 77.4176 65.44 77.4703 65.5702C77.495 65.6293 77.5187 65.6896 77.5423 65.7488C77.5928 65.8746 77.6412 66.0005 77.6885 66.1274C77.709 66.1812 77.7294 66.235 77.7487 66.2888C77.81 66.4555 77.8681 66.6222 77.9251 66.789C77.9294 66.8029 77.9348 66.8158 77.9391 66.8298C77.9993 67.0105 78.0563 67.1913 78.1111 67.372C78.1283 67.4301 78.1455 67.4892 78.1627 67.5484C78.1993 67.6732 78.2348 67.7969 78.2681 67.9217C78.2864 67.9905 78.3047 68.0593 78.3219 68.1282C78.352 68.2444 78.381 68.3605 78.409 68.4767C78.4251 68.5456 78.4412 68.6144 78.4574 68.6833C78.4842 68.8027 78.51 68.9231 78.5337 69.0425C78.5466 69.1049 78.5595 69.1684 78.5713 69.2308C78.6014 69.3878 78.6294 69.5449 78.6552 69.7019C78.6584 69.7235 78.6627 69.746 78.667 69.7676C78.695 69.9461 78.7197 70.1236 78.7412 70.3C78.7477 70.3506 78.752 70.4011 78.7584 70.4517C78.7724 70.5786 78.7864 70.7056 78.7971 70.8314C78.8025 70.8917 78.8068 70.953 78.8111 71.0132C78.8197 71.1337 78.8272 71.2531 78.8326 71.3725C78.8358 71.4295 78.8391 71.4865 78.8401 71.5435C78.8466 71.7124 78.8498 71.8813 78.8498 72.0491L78.6358 147.418C78.6358 147.746 78.6262 148.068 78.6111 148.385C78.6068 148.475 78.6004 148.562 78.595 148.651C78.5821 148.868 78.5681 149.084 78.5487 149.296C78.538 149.419 78.524 149.539 78.5111 149.66C78.4918 149.839 78.4713 150.018 78.4466 150.193C78.4294 150.322 78.409 150.45 78.3896 150.577C78.3638 150.739 78.3369 150.898 78.3068 151.056C78.2799 151.198 78.252 151.338 78.2219 151.478C78.1918 151.62 78.1595 151.759 78.1262 151.898C78.0864 152.062 78.0445 152.222 78.0004 152.38C77.9541 152.545 77.909 152.71 77.8584 152.871C77.8466 152.909 77.8348 152.949 77.8219 152.988C77.7488 153.214 77.6692 153.435 77.5864 153.65C77.5649 153.707 77.5423 153.762 77.5197 153.818C77.4434 154.008 77.3649 154.194 77.2821 154.375C77.266 154.411 77.2498 154.449 77.2337 154.484C77.1273 154.711 77.0154 154.933 76.8971 155.147C76.8971 155.147 76.8971 155.147 76.8971 155.148C76.7799 155.361 76.6552 155.567 76.5273 155.766C76.5014 155.806 76.4735 155.845 76.4477 155.885C76.3498 156.032 76.2498 156.176 76.1455 156.316C76.1036 156.372 76.0617 156.428 76.0187 156.483C75.9197 156.61 75.8187 156.733 75.7154 156.854C75.6757 156.9 75.638 156.946 75.5972 156.992C75.4552 157.151 75.309 157.305 75.1584 157.451C75.1369 157.471 75.1144 157.491 75.0929 157.511C74.9617 157.636 74.8262 157.756 74.6886 157.873C74.638 157.914 74.5875 157.955 74.5369 157.996C74.4187 158.091 74.2993 158.181 74.1767 158.269C74.1262 158.306 74.0757 158.343 74.0251 158.378C73.8552 158.494 73.681 158.607 73.5036 158.711L88.5111 149.986C88.6896 149.882 88.8627 149.769 89.0326 149.653C89.0842 149.618 89.1336 149.581 89.1842 149.545C89.3068 149.456 89.4261 149.366 89.5444 149.271C89.5949 149.23 89.6465 149.189 89.696 149.148C89.8336 149.031 89.9691 148.911 90.1003 148.786C90.1218 148.766 90.1444 148.747 90.1648 148.727C90.3153 148.581 90.4616 148.427 90.6035 148.268C90.6433 148.222 90.682 148.176 90.7207 148.13C90.8239 148.009 90.925 147.886 91.0239 147.759C91.067 147.704 91.1089 147.648 91.1508 147.592C91.2551 147.452 91.3551 147.308 91.453 147.16C91.4788 147.12 91.5067 147.082 91.5325 147.042C91.5401 147.031 91.5487 147.02 91.5562 147.007C91.7971 146.629 92.0186 146.228 92.2196 145.803C92.2261 145.789 92.2325 145.774 92.239 145.759C92.2551 145.724 92.2712 145.687 92.2874 145.652C92.3702 145.47 92.4497 145.284 92.5261 145.094C92.5487 145.038 92.5712 144.984 92.5928 144.927C92.6089 144.885 92.6261 144.845 92.6422 144.803C92.7078 144.626 92.7691 144.447 92.8282 144.264C92.8411 144.225 92.8519 144.186 92.8648 144.148C92.8927 144.057 92.9229 143.968 92.9497 143.877C92.9702 143.806 92.9874 143.729 93.0067 143.657C93.0508 143.499 93.0927 143.338 93.1325 143.175C93.1487 143.109 93.168 143.046 93.1841 142.978C93.2003 142.905 93.2132 142.829 93.2293 142.755C93.2594 142.616 93.2874 142.476 93.3142 142.334C93.3282 142.261 93.3444 142.191 93.3573 142.118C93.3723 142.032 93.3831 141.943 93.396 141.855C93.4164 141.728 93.4358 141.602 93.453 141.471C93.4616 141.406 93.4734 141.342 93.482 141.276C93.496 141.165 93.5046 141.051 93.5164 140.938C93.5293 140.817 93.5433 140.697 93.554 140.574C93.5583 140.525 93.5648 140.477 93.5691 140.428C93.582 140.264 93.5906 140.097 93.6003 139.93C93.6056 139.841 93.6132 139.753 93.6164 139.663C93.6164 139.642 93.6196 139.62 93.6207 139.598C93.6325 139.318 93.639 139.035 93.6411 138.747C93.6411 138.729 93.6411 138.713 93.6411 138.696L93.8551 63.3274C93.8551 63.1864 93.854 63.0455 93.8497 62.9025L93.854 62.896Z" fill="#2589A8"/>
<path d="M69.482 55.8071C74.6745 58.8062 78.8691 66.0747 78.8519 72.0448L78.6379 147.414C78.6067 158.584 70.7035 163.089 60.9864 157.477L49.6821 150.947C40.0241 145.369 32.2199 131.846 32.2511 120.744L32.465 45.2535C32.4823 39.2833 36.7048 36.8759 41.8962 39.875L69.481 55.8071H69.482Z" fill="#41BFE8"/>
<path opacity="0.74" d="M68.7262 59.7647L41.1414 43.8326C38.1501 42.105 35.7081 43.497 35.6985 46.9371C35.6985 46.9371 35.4845 122.375 35.4845 122.427C35.4404 137.935 48.5253 145.518 60.2575 152.294C67.766 156.631 73.8972 153.137 73.9219 144.506L74.1359 69.1373C74.1455 65.6972 71.7198 61.4934 68.7273 59.7647H68.7262Z" fill="url(#paint1_linear_197_2307)"/>
<path d="M72.973 52.851L85.6116 45.504L85.5987 49.7466L72.9612 57.0936L72.973 52.851Z" fill="#2589A8"/>
<path d="M39.2229 33.3574L51.8605 26.0104L85.6119 45.5042L72.9732 52.8512L39.2229 33.3574Z" fill="#9FE1FA"/>
<path d="M72.9734 52.8511L72.9616 58.6653L39.2102 39.1704L39.2231 33.3574L72.9734 52.8511Z" fill="#41BFE8"/>
<path d="M72.3752 48.3256L81.8536 42.8148L81.8461 45.461L72.3677 50.9708L72.3752 48.3256Z" fill="#E3E3E3"/>
<path d="M42.6926 31.1823L52.1711 25.6715L81.8537 42.8149L72.3752 48.3257L42.6926 31.1823Z" fill="#FBFDF5"/>
<path d="M72.3749 48.3257L72.3674 50.9708L42.6848 33.8275L42.6923 31.1823L72.3749 48.3257Z" fill="#F2F2F2"/>
<path d="M71.3421 21.1825L80.8205 15.6728L80.7464 42.1747L71.2668 47.6855L71.3421 21.1825Z" fill="#9B9EA6"/>
<path d="M44.2102 5.5119L53.6897 0.00109863L80.8207 15.6729L71.3423 21.1827L44.2102 5.5119Z" fill="#E3E5E7"/>
<path d="M71.3423 21.1827L71.267 47.6857L44.136 32.0149L44.2102 5.5119L71.3423 21.1827Z" fill="#C0C3C6"/>
<path d="M54.021 20.7037L46.5544 16.3912L46.5393 21.959L54.0049 26.2715L54.021 20.7037Z" fill="#4E4A4C"/>
<path d="M67.9095 28.7255L60.4655 24.4259L60.4504 29.9948L67.8934 34.2943L67.9095 28.7255Z" fill="#4E4A4C"/>
<path d="M53.1722 112.086C49.7422 110.105 46.954 111.695 46.9422 115.636C46.9314 119.58 49.7013 124.38 53.1314 126.361C56.5604 128.341 59.3485 126.751 59.3593 122.809C59.37 118.868 56.6002 114.067 53.1712 112.086H53.1722Z" fill="#41BEE8"/>
<path d="M53.2228 94.4644C50.5755 92.9348 48.4217 94.1611 48.4131 97.2053C48.4045 100.247 50.5443 103.954 53.1916 105.484C55.8378 107.012 57.9916 105.784 58.0002 102.743C58.0088 99.6998 55.869 95.994 53.2228 94.4655V94.4644Z" fill="#41BEE8"/>
<defs>
<radialGradient id="paint0_radial_197_2307" cx="0" cy="0" r="1" gradientUnits="userSpaceOnUse" gradientTransform="translate(62.3279 161.29) rotate(16.3263) scale(61.4526 22.5723)">
<stop stop-color="#142444"/>
<stop offset="0.44" stop-color="#838B9C"/>
<stop offset="0.82" stop-color="#DCDEE3"/>
<stop offset="0.99" stop-color="white"/>
</radialGradient>
<linearGradient id="paint1_linear_197_2307" x1="35.4845" y1="98.6232" x2="74.1348" y2="98.6232" gradientUnits="userSpaceOnUse">
<stop offset="0.32" stop-color="#412DC5"/>
<stop offset="1" stop-color="#412DC5"/>
</linearGradient>
</defs>
</svg>
