<svg width="36" height="36" viewBox="0 0 36 36" fill="none" xmlns="http://www.w3.org/2000/svg">
<circle cx="18" cy="18" r="18" fill="#1B72FF"/>
<path fill-rule="evenodd" clip-rule="evenodd" d="M13.5 11.25C11.8431 11.25 10.5 12.5931 10.5 14.25V21.75C10.5 23.4069 11.8431 24.75 13.5 24.75H22.5C24.1569 24.75 25.5 23.4069 25.5 21.75V14.25C25.5 12.5931 24.1569 11.25 22.5 11.25H13.5ZM13.812 14.5319C13.5535 14.3596 13.2043 14.4295 13.032 14.6879C12.8597 14.9464 12.9295 15.2957 13.188 15.468L16.0239 17.3586C17.2205 18.1564 18.7795 18.1564 19.9761 17.3586L22.812 15.468C23.0705 15.2957 23.1404 14.9464 22.968 14.6879C22.7957 14.4295 22.4465 14.3596 22.188 14.5319L19.3521 16.4225C18.5333 16.9684 17.4667 16.9684 16.6479 16.4225L13.812 14.5319Z" fill="white"/>
</svg>
