<svg width="54" height="55" viewBox="0 0 54 55" fill="none" xmlns="http://www.w3.org/2000/svg">
<g clip-path="url(#clip0_177_778)">
<path d="M47.25 54.5H10.9688C10.745 54.5 10.5304 54.4111 10.3721 54.2529C10.2139 54.0946 10.125 53.88 10.125 53.6562V1.34375C10.125 1.11997 10.2139 0.905362 10.3721 0.747129C10.5304 0.588895 10.745 0.5 10.9688 0.5H38.5273C38.7511 0.500048 38.9656 0.588974 39.1238 0.747219L47.8465 9.46991C48.0048 9.6281 48.0937 9.84268 48.0938 10.0664V53.6562C48.0938 53.88 48.0049 54.0946 47.8466 54.2529C47.6884 54.4111 47.4738 54.5 47.25 54.5Z" fill="url(#paint0_linear_177_778)"/>
<path d="M5.90625 28.2983L9.28125 26.8074L11.637 30.4228H5.90625V28.2983Z" fill="url(#paint1_linear_177_778)"/>
<path d="M46.4062 54.5H10.125C9.90122 54.5 9.68661 54.4111 9.52838 54.2529C9.37015 54.0946 9.28125 53.88 9.28125 53.6562V1.34375C9.28125 1.11997 9.37015 0.905362 9.52838 0.747129C9.68661 0.588895 9.90122 0.5 10.125 0.5H38.0329L47.25 9.71712V53.6562C47.25 53.88 47.1611 54.0946 47.0029 54.2529C46.8446 54.4111 46.63 54.5 46.4062 54.5Z" fill="url(#paint2_linear_177_778)"/>
<path d="M38.0332 0.5V8.87337C38.0332 9.09715 38.1221 9.31176 38.2803 9.47C38.4386 9.62823 38.6532 9.71712 38.877 9.71712H47.2503L43.116 4.739L38.0332 0.5Z" fill="url(#paint3_linear_177_778)"/>
<path d="M38.8311 44.797H7.39969C7.20354 44.7971 7.00929 44.7585 6.82804 44.6835C6.6468 44.6085 6.48212 44.4985 6.34342 44.3598C6.20472 44.2211 6.09472 44.0564 6.01971 43.8752C5.94469 43.6939 5.90614 43.4997 5.90625 43.3035V29.79H38.8311C39.2271 29.7903 39.6068 29.9477 39.8868 30.2277C40.1669 30.5077 40.3243 30.8875 40.3245 31.2835V43.3035C40.3245 43.6996 40.1672 44.0795 39.8871 44.3596C39.607 44.6396 39.2271 44.797 38.8311 44.797Z" fill="url(#paint4_linear_177_778)"/>
<path d="M9.28125 26.8074H7.398C7.20214 26.8073 7.00818 26.8457 6.8272 26.9206C6.64621 26.9955 6.48176 27.1053 6.34322 27.2437C6.20469 27.3822 6.0948 27.5466 6.01982 27.7275C5.94484 27.9085 5.90625 28.1024 5.90625 28.2983C5.90614 28.4942 5.94465 28.6882 6.01958 28.8693C6.09451 29.0503 6.20438 29.2148 6.34293 29.3534C6.48147 29.4919 6.64596 29.6018 6.827 29.6767C7.00804 29.7516 7.20207 29.7901 7.398 29.79H9.28125V26.8074Z" fill="url(#paint5_linear_177_778)"/>
<path d="M12.6563 40.1861V34.403C12.6561 34.3068 12.675 34.2115 12.7118 34.1225C12.7485 34.0336 12.8024 33.9527 12.8705 33.8846C12.9385 33.8165 13.0193 33.7625 13.1082 33.7257C13.1971 33.6888 13.2924 33.6698 13.3886 33.6698C14.5083 33.6268 15.6297 33.6632 16.7442 33.7787C17.1952 33.9095 17.5872 34.1921 17.8539 34.5786C18.1207 34.965 18.2458 35.4318 18.2081 35.8999C18.2414 36.396 18.097 36.8879 17.8008 37.2873C17.5046 37.6868 17.076 37.9678 16.5915 38.0801C15.8494 38.169 15.1018 38.2036 14.3547 38.1839C14.2923 38.1839 14.2324 38.2087 14.1883 38.2528C14.1441 38.297 14.1193 38.3569 14.1193 38.4193V40.1861C14.1193 40.2822 14.1004 40.3773 14.0636 40.466C14.0269 40.5548 13.973 40.6354 13.9051 40.7034C13.8371 40.7713 13.7565 40.8252 13.6677 40.862C13.579 40.8987 13.4838 40.9176 13.3878 40.9176C13.1938 40.9176 13.0077 40.8406 12.8705 40.7034C12.7333 40.5662 12.6563 40.3801 12.6563 40.1861ZM14.1193 35.132V36.7174C14.1193 36.7799 14.1441 36.8398 14.1883 36.8839C14.2324 36.9281 14.2923 36.9529 14.3547 36.9529C14.9313 36.9926 15.5105 36.9543 16.0768 36.8389C16.2771 36.7593 16.4458 36.6164 16.5574 36.432C16.669 36.2477 16.7173 36.0319 16.6949 35.8175C16.6726 35.6032 16.5808 35.402 16.4336 35.2446C16.2864 35.0872 16.0918 34.9822 15.8794 34.9456C15.3724 34.9019 14.8635 34.8853 14.3547 34.8958C14.3238 34.8959 14.2932 34.9021 14.2647 34.914C14.2362 34.926 14.2103 34.9434 14.1885 34.9653C14.1667 34.9873 14.1495 35.0133 14.1378 35.0419C14.126 35.0705 14.12 35.1011 14.1202 35.132H14.1193Z" fill="white"/>
<path d="M19.4063 34.4028C19.4061 34.3066 19.425 34.2112 19.4618 34.1223C19.4985 34.0333 19.5524 33.9525 19.6205 33.8844C19.6885 33.8163 19.7693 33.7623 19.8582 33.7254C19.9471 33.6886 20.0424 33.6696 20.1386 33.6696C21.2475 33.6034 22.3601 33.6498 23.4596 33.808C23.8851 33.9456 24.2704 34.1855 24.5817 34.5066C24.893 34.8277 25.1207 35.2203 25.245 35.6499C25.4162 36.2042 25.4963 36.7827 25.4821 37.3627C25.4932 37.8856 25.4179 38.4067 25.2593 38.9051C25.143 39.3433 24.9159 39.7443 24.5998 40.0694C24.2838 40.3944 23.8894 40.6327 23.4546 40.7613C22.3565 40.9167 21.2463 40.9682 20.1386 40.9149C19.9448 40.9149 19.7589 40.8381 19.6217 40.7013C19.4844 40.5645 19.4069 40.3788 19.4063 40.185V34.4028ZM20.8693 35.1318V39.4611C20.8693 39.5235 20.8941 39.5834 20.9383 39.6276C20.9824 39.6717 21.0423 39.6965 21.1047 39.6965C21.6864 39.7286 22.2698 39.7054 22.8471 39.6273C23.0905 39.5761 23.3132 39.4535 23.4867 39.2751C23.6601 39.0967 23.7764 38.8706 23.8208 38.6258C23.9327 38.1926 23.9827 37.7458 23.9693 37.2986C23.9849 36.8635 23.9348 36.4286 23.8208 36.0085C23.7568 35.7479 23.6195 35.5111 23.4251 35.3261C23.2307 35.1411 22.9873 35.0157 22.7239 34.9648C22.1849 34.9054 21.6426 34.8823 21.1005 34.8956C21.0385 34.8965 20.9794 34.9218 20.9359 34.966C20.8925 35.0102 20.8691 35.0698 20.8693 35.1318Z" fill="white"/>
<path d="M26.7314 40.186V34.4029C26.7314 34.2084 26.8087 34.0219 26.9462 33.8844C27.0837 33.7469 27.2702 33.6697 27.4647 33.6697H31.0869C31.2496 33.6697 31.4056 33.7343 31.5206 33.8493C31.6357 33.9644 31.7003 34.1204 31.7003 34.2831C31.7003 34.3636 31.6844 34.4433 31.6536 34.5177C31.6227 34.5921 31.5775 34.6596 31.5206 34.7165C31.4636 34.7734 31.396 34.8185 31.3216 34.8493C31.2471 34.88 31.1674 34.8958 31.0869 34.8956H28.4341C28.4031 34.8956 28.3725 34.9018 28.3439 34.9136C28.3152 34.9255 28.2892 34.9429 28.2674 34.9649C28.2455 34.9868 28.2282 35.0129 28.2164 35.0416C28.2046 35.0702 28.1986 35.1009 28.1987 35.1319V36.3756C28.1986 36.4066 28.2046 36.4373 28.2164 36.4659C28.2282 36.4946 28.2455 36.5206 28.2674 36.5426C28.2892 36.5645 28.3152 36.582 28.3439 36.5938C28.3725 36.6057 28.4031 36.6118 28.4341 36.6118H30.611C30.7735 36.6118 30.9294 36.6763 31.0445 36.7912C31.1595 36.9061 31.2242 37.0619 31.2244 37.2244C31.2242 37.387 31.1595 37.5429 31.0445 37.6579C30.9295 37.7729 30.7736 37.8376 30.611 37.8378H28.4341C28.4032 37.8378 28.3726 37.8439 28.344 37.8557C28.3155 37.8676 28.2895 37.8849 28.2677 37.9068C28.2458 37.9286 28.2285 37.9546 28.2166 37.9831C28.2048 38.0117 28.1987 38.0423 28.1987 38.0732V40.1826C28.1985 40.3767 28.1212 40.5627 27.9839 40.6999C27.8466 40.8371 27.6604 40.9141 27.4664 40.9141C27.3703 40.9146 27.2751 40.8961 27.1862 40.8597C27.0972 40.8234 27.0163 40.7699 26.9481 40.7022C26.8798 40.6346 26.8256 40.5542 26.7884 40.4656C26.7512 40.3771 26.7319 40.282 26.7314 40.186Z" fill="white"/>
</g>
<defs>
<linearGradient id="paint0_linear_177_778" x1="29.1094" y1="-26.489" x2="29.1094" y2="-24.324" gradientUnits="userSpaceOnUse">
<stop stop-color="#F3F7FF"/>
<stop offset="0.99" stop-color="#B5D1FF"/>
</linearGradient>
<linearGradient id="paint1_linear_177_778" x1="8.77162" y1="26.1914" x2="8.77162" y2="101.496" gradientUnits="userSpaceOnUse">
<stop stop-color="#FF5252"/>
<stop offset="1" stop-color="#D50000"/>
</linearGradient>
<linearGradient id="paint2_linear_177_778" x1="28.2656" y1="-4.08072" x2="28.2656" y2="130.418" gradientUnits="userSpaceOnUse">
<stop stop-color="#F3F7FF"/>
<stop offset="0.99" stop-color="#B5D1FF"/>
</linearGradient>
<linearGradient id="paint3_linear_177_778" x1="42.6418" y1="-19.2682" x2="42.6418" y2="-2.87416" gradientUnits="userSpaceOnUse">
<stop stop-color="#F3F7FF"/>
<stop offset="0.99" stop-color="#B5D1FF"/>
</linearGradient>
<linearGradient id="paint4_linear_177_778" x1="23.1154" y1="27.9372" x2="23.1154" y2="72.1784" gradientUnits="userSpaceOnUse">
<stop stop-color="#FF5252"/>
<stop offset="1" stop-color="#D50000"/>
</linearGradient>
<linearGradient id="paint5_linear_177_778" x1="7.59375" y1="14.2709" x2="7.59375" y2="37.3382" gradientUnits="userSpaceOnUse">
<stop stop-color="#FF5252"/>
<stop offset="1" stop-color="#D50000"/>
</linearGradient>
<clipPath id="clip0_177_778">
<rect width="54" height="54" fill="white" transform="translate(0 0.5)"/>
</clipPath>
</defs>
</svg>
