<svg width="36" height="36" viewBox="0 0 36 36" fill="none" xmlns="http://www.w3.org/2000/svg">
<circle cx="18" cy="18" r="18" fill="#1B72FF"/>
<path fill-rule="evenodd" clip-rule="evenodd" d="M25.5 18C25.5 22.1421 22.1421 25.5 18 25.5C16.8543 25.5 15.7686 25.2431 14.7974 24.7838L11.8745 25.2709C11.1995 25.3834 10.6135 24.8 10.723 24.1245L11.2017 21.1718C10.7515 20.2084 10.5 19.1336 10.5 18C10.5 13.8579 13.8579 10.5 18 10.5C22.1421 10.5 25.5 13.8579 25.5 18ZM21 20.0062V20.3333C21 20.7015 20.7015 21 20.3333 21C17.3878 21 15 18.6122 15 15.6667C15 15.2985 15.2985 15 15.6666 15H15.9938C16.4002 15 16.7656 15.2474 16.9165 15.6247L17.0565 15.9746C17.213 16.3658 17.0435 16.8116 16.6666 17C16.6666 17 16.8333 17.8333 17.5 18.5C18.1666 19.1667 19 19.3333 19 19.3333C19.1884 18.9565 19.6342 18.787 20.0254 18.9435L20.3753 19.0834C20.7526 19.2344 21 19.5998 21 20.0062Z" fill="white"/>
</svg>
